# xmcd CD database file
#
# Track frame offsets:
#	150
#	10124
#	16843
#	51274
#	67837
#	103822
#	117948
#	126325
#	136858
#	173381
#	186814
#	238723
#	245450
#
# Disc length: 3499 seconds
#
# Revision: 2
# Processed by: cddbd v1.5.1PL2 Copyright (c) Steve Scherf et al.
# Submitted via: CDex 1.60beta1
#
DISCID=a30da90d
DTITLE=Various Artist - ぱにぽにだっしゅ！ ドラマCD Vol.2 総天然色桃月劇場
DYEAR=2006
DGENRE=Anime
TTITLE0=ぽに01 スーパーウルフ一条・1
TTITLE1=桃月学園1年C組feat.一条さん/ルーレット☆ルーレット
TTITLE2=ぽに02 知られざる世界旅行
TTITLE3=ぽに03 メッセージボイス
TTITLE4=ぽに04 二人で枯れススキ
TTITLE5=ぽに05 発車オーライ！
TTITLE6=ぽに06 スーパーウルフ一条・2
TTITLE7=ぽに07 すかちょろびんちょろほげたらりん
TTITLE8=ぽに08 宇宙人、捕獲さる！
TTITLE9=ぽに09 スーパーウルフ一条・3
TTITLE10=ぽに10 ぱにぽに署二十四時
TTITLE11=桃月学園1年で〜組/ムーンライト・ラブ
TTITLE12=ぽに11 桃月電話相談室
EXTD=YEAR: 2006
EXTT0=
EXTT1=
EXTT2=
EXTT3=
EXTT4=
EXTT5=
EXTT6=
EXTT7=
EXTT8=
EXTT9=
EXTT10=
EXTT11=
EXTT12=
PLAYORDER=
